<?xml version="1.0" standalone="no"?>
<!DOCTYPE svg PUBLIC "-//W3C//DTD SVG 20010904//EN"
 "http://www.w3.org/TR/2001/REC-SVG-20010904/DTD/svg10.dtd">
<svg version="1.0" xmlns="http://www.w3.org/2000/svg"
 width="700.000000pt" height="700.000000pt" viewBox="0 0 700.000000 700.000000"
 preserveAspectRatio="xMidYMid meet">
<metadata>
Created by potrace 1.14, written by Peter Selinger 2001-2017
</metadata>
<g transform="translate(0.000000,700.000000) scale(0.100000,-0.100000)"
fill="#000000" stroke="none">
<path d="M4503 6980 c-354 -54 -659 -181 -963 -403 -72 -53 -293 -267 -918
-891 -470 -468 -868 -874 -927 -943 -185 -221 -320 -427 -453 -693 -168 -335
-275 -672 -332 -1047 -32 -215 -40 -378 -40 -837 l0 -441 1308 1307 c935 934
1320 1312 1351 1328 62 31 152 25 209 -13 59 -39 94 -103 95 -175 0 -31 -6
-69 -12 -82 -7 -14 -809 -821 -1781 -1795 -1360 -1362 -1772 -1780 -1788
-1815 -33 -70 -43 -139 -31 -209 36 -203 249 -322 446 -250 54 20 86 49 473
434 l415 414 600 4 c641 5 703 9 985 62 440 84 893 263 1236 491 106 71 125
183 46 267 -37 39 -67 53 -132 62 -69 9 -86 18 -110 58 -31 50 -26 101 13 142
30 32 61 43 607 205 316 95 589 180 605 190 45 28 370 360 391 400 12 23 18
56 18 97 0 51 -6 70 -30 110 -33 53 -78 88 -133 103 -20 5 -149 10 -288 10
l-251 0 -31 25 c-58 50 -62 132 -8 183 15 14 257 91 792 251 424 127 793 242
822 256 60 31 83 62 140 190 116 258 173 534 173 835 0 337 -69 638 -215 935
-114 233 -237 399 -454 615 -305 302 -628 487 -1022 584 -239 58 -562 73 -806
36z"/>
</g>
</svg>
