<?xml version="1.0" encoding="iso-8859-1"?>
<!-- Generator: Adobe Illustrator 18.1.1, SVG Export Plug-In . SVG Version: 6.00 Build 0)  -->
<svg version="1.1" id="Capa_1" xmlns="http://www.w3.org/2000/svg" xmlns:xlink="http://www.w3.org/1999/xlink" x="0px" y="0px"
	 viewBox="0 0 174.239 174.239" style="enable-background:new 0 0 174.239 174.239;" xml:space="preserve">
<g>
	<path d="M125.908,48.485h-4.847V33.939C121.061,15.226,105.834,0,87.12,0S53.178,15.226,53.178,33.939v14.546h-4.847
		c-13.282,0-24.089,10.807-24.089,24.089v77.576c0,13.282,10.807,24.089,24.089,24.089h77.576c13.282,0,24.089-10.807,24.089-24.089
		V72.574C149.997,59.292,139.19,48.485,125.908,48.485z M68.113,33.939c0-10.477,8.527-19.004,19.006-19.004
		s19.006,8.527,19.006,19.004v14.546H68.113V33.939z M135.062,150.15c0,5.046-4.106,9.154-9.154,9.154H48.331
		c-5.049,0-9.154-4.108-9.154-9.154V72.574c0-5.046,4.106-9.154,9.154-9.154h12.314h52.948h12.314c5.049,0,9.154,4.108,9.154,9.154
		V150.15z"/>
	<path d="M109.216,117.349c-6.155,5.241-14.001,8.129-22.096,8.129c-8.092,0-15.936-2.888-22.086-8.124
		c-3.136-2.679-7.849-2.309-10.528,0.841c-2.674,3.141-2.297,7.851,0.843,10.525c8.851,7.54,20.132,11.692,31.77,11.692
		c11.641,0,22.927-4.152,31.78-11.697c3.141-2.674,3.517-7.385,0.843-10.525C117.067,115.045,112.349,114.665,109.216,117.349z"/>
</g>
<g>
</g>
<g>
</g>
<g>
</g>
<g>
</g>
<g>
</g>
<g>
</g>
<g>
</g>
<g>
</g>
<g>
</g>
<g>
</g>
<g>
</g>
<g>
</g>
<g>
</g>
<g>
</g>
<g>
</g>
</svg>
