<?xml version="1.0" encoding="iso-8859-1"?>
<!-- Generator: Adobe Illustrator 18.0.0, SVG Export Plug-In . SVG Version: 6.00 Build 0)  -->
<!DOCTYPE svg PUBLIC "-//W3C//DTD SVG 1.1//EN" "http://www.w3.org/Graphics/SVG/1.1/DTD/svg11.dtd">
<svg version="1.1" id="Capa_1" xmlns="http://www.w3.org/2000/svg" xmlns:xlink="http://www.w3.org/1999/xlink" x="0px" y="0px"
	 viewBox="0 0 368.469 368.469" style="enable-background:new 0 0 368.469 368.469;" xml:space="preserve">
<path d="M256.901,220.978h50.185v-22.464c0-18.945-10.539-35.428-26.072-43.91V96.78c0-53.365-43.415-96.78-96.779-96.78
	S87.455,43.415,87.455,96.78l0.004,2.941c0,13.808,11.218,25,25.025,25s25-11.192,25-25c0,0,0.016-3.421,0.012-3.591
	C137.847,70.636,158.658,50,184.234,50c25.794,0,46.779,20.985,46.779,46.78v51.733l-109.279-0.021
	c-23.834,0-34.279,6.111-34.279,6.111c-15.533,8.482-26.072,24.965-26.072,43.91v119.955c0,27.614,22.387,50,50,50h145.703
	c27.613,0,50-22.386,50-50v-15.491h-50.185c-7.18,0-13-5.82-13-13c0-7.18,5.82-13,13-13h50.185v-30h-50.185c-7.18,0-13-5.82-13-13
	C243.901,226.798,249.722,220.978,256.901,220.978z"/>
<g>
</g>
<g>
</g>
<g>
</g>
<g>
</g>
<g>
</g>
<g>
</g>
<g>
</g>
<g>
</g>
<g>
</g>
<g>
</g>
<g>
</g>
<g>
</g>
<g>
</g>
<g>
</g>
<g>
</g>
</svg>
